<svg width="146" height="34" viewBox="0 0 146 34" fill="none" xmlns="http://www.w3.org/2000/svg">
<path d="M2.016 20.564C3.072 23.708 5.112 25.28 8.136 25.28C10.176 25.28 11.592 24.704 12.384 23.552C13.2 22.376 13.608 20.768 13.608 18.728L13.608 0.799998H14.688L14.688 18.728C14.688 23.816 12.504 26.36 8.136 26.36C6.072 26.36 4.476 25.844 3.348 24.812C2.244 23.78 1.368 22.364 0.72 20.564H2.016ZM35.5286 23.876C34.2086 25.532 32.0486 26.36 29.0486 26.36C26.0486 26.36 23.9006 25.508 22.6046 23.804C21.3086 22.1 20.6606 19.352 20.6606 15.56C20.6606 11.768 21.3086 9.02 22.6046 7.316C23.9006 5.612 26.0486 4.76 29.0486 4.76C32.5286 4.76 34.8926 5.9 36.1406 8.18L27.3206 15.56L25.6286 15.56L34.7366 7.964C33.6806 6.548 31.7846 5.84 29.0486 5.84C27.8486 5.84 26.8406 5.972 26.0246 6.236C25.2086 6.476 24.4526 6.944 23.7566 7.64C23.0846 8.312 22.5806 9.308 22.2446 10.628C21.9086 11.924 21.7406 13.568 21.7406 15.56C21.7406 17.552 21.9086 19.208 22.2446 20.528C22.5806 21.824 23.0846 22.82 23.7566 23.516C24.4526 24.188 25.2086 24.656 26.0246 24.92C26.8406 25.16 27.8486 25.28 29.0486 25.28C31.7846 25.28 33.6806 24.572 34.7366 23.156L35.5286 23.876ZM50.0673 15.524L54.9633 26H53.7753L48.7353 15.2C48.7833 15.176 48.9873 15.08 49.3473 14.912C49.7313 14.72 49.9953 14.588 50.1393 14.516C50.2833 14.42 50.5233 14.264 50.8593 14.048C51.1953 13.832 51.4473 13.628 51.6153 13.436C51.7833 13.22 51.9633 12.98 52.1553 12.716C52.3713 12.428 52.5273 12.116 52.6233 11.78C52.7193 11.42 52.7673 11.036 52.7673 10.628C52.7673 9.116 52.0473 8 50.6073 7.28C49.1673 6.56 47.3793 6.2 45.2433 6.2H42.3633L42.3633 26H41.2833L41.2833 5.12H45.2433C48.0753 5.12 50.2113 5.612 51.6513 6.596C53.1153 7.58 53.8473 8.924 53.8473 10.628C53.8473 11.732 53.4753 12.716 52.7313 13.58C51.9873 14.42 51.0993 15.068 50.0673 15.524ZM68.6298 15.524L73.5258 26H72.3378L67.2978 15.2C67.3458 15.176 67.5498 15.08 67.9098 14.912C68.2938 14.72 68.5578 14.588 68.7018 14.516C68.8458 14.42 69.0858 14.264 69.4218 14.048C69.7578 13.832 70.0098 13.628 70.1778 13.436C70.3458 13.22 70.5258 12.98 70.7178 12.716C70.9338 12.428 71.0898 12.116 71.1858 11.78C71.2818 11.42 71.3298 11.036 71.3298 10.628C71.3298 9.116 70.6098 8 69.1698 7.28C67.7298 6.56 65.9418 6.2 63.8058 6.2H60.9258L60.9258 26H59.8458L59.8458 5.12H63.8058C66.6378 5.12 68.7738 5.612 70.2138 6.596C71.6778 7.58 72.4098 8.924 72.4098 10.628C72.4098 11.732 72.0378 12.716 71.2938 13.58C70.5498 14.42 69.6618 15.068 68.6298 15.524ZM79.6683 5.12L93.6003 5.12L85.1403 25.1L85.1403 33.2H84.0603L84.0603 25.1L75.6003 5.12L76.7523 5.12L84.6003 23.588L91.9803 6.2L79.6683 6.2V5.12ZM97.6388 26V5.12H98.7188L110.455 24.02V5.12L111.535 5.12V26H110.455L98.7188 7.064V26L97.6388 26ZM118.381 5.12H119.461V26H118.381V5.12ZM129.675 24.92L143.571 24.92V6.632L135.471 14.732L127.371 6.632V26L126.291 25.964V5.12H127.371L135.471 13.22L143.571 5.12H144.651V26L129.675 25.964V24.92Z" fill="url(#paint0_linear)"/>
<path d="M2.016 20.564L2.48998 20.4048L2.37551 20.064H2.016V20.564ZM12.384 23.552L11.9732 23.267L11.972 23.2687L12.384 23.552ZM13.608 0.799998V0.299998H13.108V0.799998H13.608ZM14.688 0.799998H15.188V0.299998H14.688V0.799998ZM3.348 24.812L3.00654 25.1773L3.01049 25.1809L3.348 24.812ZM0.72 20.564L0.72 20.064H0.00858684L0.249556 20.7334L0.72 20.564ZM1.54202 20.7232C2.09256 22.3623 2.91455 23.6353 4.03281 24.4971C5.15488 25.3617 6.53356 25.78 8.136 25.78L8.136 24.78C6.71444 24.78 5.56112 24.4123 4.64319 23.7049C3.72145 22.9947 2.99544 21.9097 2.48998 20.4048L1.54202 20.7232ZM8.136 25.78C10.2601 25.78 11.8729 25.178 12.796 23.8353L11.972 23.2687C11.3111 24.23 10.0919 24.78 8.136 24.78L8.136 25.78ZM12.7948 23.837C13.6888 22.5486 14.108 20.8283 14.108 18.728H13.108C13.108 20.7077 12.7112 22.2034 11.9732 23.267L12.7948 23.837ZM14.108 18.728L14.108 0.799998H13.108L13.108 18.728H14.108ZM13.608 1.3H14.688V0.299998H13.608V1.3ZM14.188 0.799998L14.188 18.728H15.188L15.188 0.799998H14.188ZM14.188 18.728C14.188 21.212 13.6532 22.9817 12.6706 24.1263C11.7005 25.2563 10.2213 25.86 8.136 25.86V26.86C10.4187 26.86 12.2155 26.1917 13.4294 24.7777C14.6308 23.3783 15.188 21.332 15.188 18.728H14.188ZM8.136 25.86C6.15255 25.86 4.69312 25.365 3.68551 24.4431L3.01049 25.1809C4.25888 26.323 5.99145 26.86 8.136 26.86V25.86ZM3.68944 24.4467C2.65672 23.4814 1.81855 22.1394 1.19044 20.3946L0.249556 20.7334C0.917454 22.5886 1.83128 24.0786 3.00656 25.1773L3.68944 24.4467ZM0.72 21.064H2.016V20.064H0.72L0.72 21.064ZM35.5286 23.876L35.9196 24.1877L36.2117 23.8212L35.865 23.506L35.5286 23.876ZM22.6046 23.804L23.0026 23.5013L22.6046 23.804ZM22.6046 7.316L22.2067 7.01331L22.6046 7.316ZM36.1406 8.18L36.4615 8.56347L36.7763 8.30003L36.5792 7.93993L36.1406 8.18ZM27.3206 15.56V16.06H27.5022L27.6415 15.9435L27.3206 15.56ZM25.6286 15.56L25.3084 15.176L24.2484 16.06H25.6286V15.56ZM34.7366 7.964L35.0569 8.34798L35.4205 8.04469L35.1374 7.66509L34.7366 7.964ZM26.0246 6.236L26.1658 6.71585L26.1785 6.71172L26.0246 6.236ZM23.7566 7.64L23.4031 7.28644L23.7566 7.64ZM22.2446 10.628L22.7286 10.7535L22.7292 10.7513L22.2446 10.628ZM22.2446 20.528L21.7601 20.6513L21.7606 20.6535L22.2446 20.528ZM23.7566 23.516L23.3969 23.8633L23.403 23.8696L23.4093 23.8757L23.7566 23.516ZM26.0246 24.92L25.8707 25.3959L25.8835 25.3997L26.0246 24.92ZM34.7366 23.156L35.073 22.786L34.6652 22.4154L34.3358 22.8571L34.7366 23.156ZM35.1376 23.5643C33.9474 25.0576 31.9629 25.86 29.0486 25.86V26.86C32.1343 26.86 34.4699 26.0064 35.9196 24.1877L35.1376 23.5643ZM29.0486 25.86C26.1382 25.86 24.1699 25.0362 23.0026 23.5013L22.2067 24.1067C23.6313 25.9798 25.959 26.86 29.0486 26.86V25.86ZM23.0026 23.5013C21.807 21.9294 21.1606 19.3175 21.1606 15.56H20.1606C20.1606 19.3865 20.8102 22.2706 22.2067 24.1067L23.0026 23.5013ZM21.1606 15.56C21.1606 11.8025 21.807 9.19062 23.0026 7.61868L22.2067 7.01331C20.8102 8.84938 20.1606 11.7335 20.1606 15.56H21.1606ZM23.0026 7.61868C24.1699 6.08383 26.1382 5.26 29.0486 5.26V4.26C25.959 4.26 23.6313 5.14016 22.2067 7.01331L23.0026 7.61868ZM29.0486 5.26C32.417 5.26 34.5713 6.35429 35.702 8.42007L36.5792 7.93993C35.214 5.44571 32.6402 4.26 29.0486 4.26V5.26ZM35.8198 7.79653L26.9998 15.1765L27.6415 15.9435L36.4615 8.56347L35.8198 7.79653ZM27.3206 15.06L25.6286 15.06V16.06L27.3206 16.06V15.06ZM25.9489 15.944L35.0569 8.34798L34.4164 7.58001L25.3084 15.176L25.9489 15.944ZM35.1374 7.66509C33.9443 6.06522 31.8538 5.34 29.0486 5.34V6.34C31.7155 6.34 33.4169 7.03078 34.3358 8.26291L35.1374 7.66509ZM29.0486 5.34C27.8155 5.34 26.7519 5.47519 25.8707 5.76028L26.1785 6.71172C26.9294 6.46881 27.8817 6.34 29.0486 6.34V5.34ZM25.8835 5.75632C24.9755 6.0234 24.1489 6.54066 23.4031 7.28644L24.1102 7.99355C24.7564 7.34734 25.4418 6.9286 26.1657 6.71568L25.8835 5.75632ZM23.4031 7.28644C22.6457 8.04377 22.1092 9.13318 21.7601 10.5047L22.7292 10.7513C23.0521 9.48282 23.5235 8.58023 24.1102 7.99355L23.4031 7.28644ZM21.7606 10.5025C21.4102 11.8542 21.2406 13.5441 21.2406 15.56H22.2406C22.2406 13.5919 22.4071 11.9938 22.7286 10.7535L21.7606 10.5025ZM21.2406 15.56C21.2406 17.5763 21.4103 19.2772 21.7601 20.6513L22.7292 20.4047C22.407 19.1388 22.2406 17.5277 22.2406 15.56H21.2406ZM21.7606 20.6535C22.1103 22.0024 22.6464 23.086 23.3969 23.8633L24.1163 23.1687C23.5228 22.554 23.0509 21.6456 22.7286 20.4025L21.7606 20.6535ZM23.4093 23.8757C24.1531 24.5938 24.9735 25.1054 25.8707 25.3957L26.1785 24.4443C25.4438 24.2066 24.7522 23.7822 24.1039 23.1563L23.4093 23.8757ZM25.8835 25.3997C26.7599 25.6574 27.8188 25.78 29.0486 25.78V24.78C27.8785 24.78 26.9214 24.6626 26.1657 24.4403L25.8835 25.3997ZM29.0486 25.78C31.8538 25.78 33.9443 25.0548 35.1374 23.4549L34.3358 22.8571C33.4169 24.0892 31.7155 24.78 29.0486 24.78V25.78ZM34.4003 23.526L35.1923 24.246L35.865 23.506L35.073 22.786L34.4003 23.526ZM50.0673 15.524L49.8652 15.0667L49.3981 15.2731L49.6143 15.7357L50.0673 15.524ZM54.9633 26V26.5H55.7489L55.4163 25.7883L54.9633 26ZM53.7753 26L53.3222 26.2114L53.4569 26.5L53.7753 26.5V26ZM48.7353 15.2L48.5117 14.7528L48.0764 14.9704L48.2822 15.4114L48.7353 15.2ZM49.3473 14.912L49.5588 15.3653L49.5709 15.3592L49.3473 14.912ZM50.1393 14.516L50.3629 14.9632L50.3907 14.9493L50.4166 14.932L50.1393 14.516ZM50.8593 14.048L51.1297 14.4686L50.8593 14.048ZM51.6153 13.436L51.9916 13.7653L52.0011 13.7544L52.01 13.743L51.6153 13.436ZM52.1553 12.716L51.7552 12.416L51.7509 12.4219L52.1553 12.716ZM52.6233 11.78L53.1041 11.9174L53.1064 11.9088L52.6233 11.78ZM50.6073 7.28L50.8309 6.83278L50.6073 7.28ZM42.3633 6.2V5.7H41.8633V6.2H42.3633ZM42.3633 26V26.5H42.8633V26H42.3633ZM41.2833 26H40.7833V26.5H41.2833V26ZM41.2833 5.12V4.62H40.7833V5.12H41.2833ZM51.6513 6.596L51.3692 7.00883L51.3724 7.01097L51.6513 6.596ZM52.7313 13.58L53.1056 13.9115L53.1102 13.9063L52.7313 13.58ZM49.6143 15.7357L54.5103 26.2117L55.4163 25.7883L50.5203 15.3123L49.6143 15.7357ZM54.9633 25.5H53.7753V26.5H54.9633V25.5ZM54.2284 25.7886L49.1884 14.9886L48.2822 15.4114L53.3222 26.2114L54.2284 25.7886ZM48.9589 15.6472C48.9991 15.6271 49.1942 15.5352 49.5587 15.3651L49.1358 14.4589C48.7803 14.6248 48.5675 14.7249 48.5117 14.7528L48.9589 15.6472ZM49.5709 15.3592C49.9549 15.1672 50.2189 15.0352 50.3629 14.9632L49.9157 14.0688C49.7717 14.1408 49.5077 14.2728 49.1237 14.4648L49.5709 15.3592ZM50.4166 14.932C50.5569 14.8385 50.7938 14.6845 51.1297 14.4686L50.5889 13.6274C50.2528 13.8435 50.0097 14.0015 49.8619 14.1L50.4166 14.932ZM51.1297 14.4686C51.4855 14.2398 51.7804 14.0065 51.9916 13.7653L51.239 13.1067C51.1141 13.2495 50.9051 13.4242 50.5889 13.6274L51.1297 14.4686ZM52.01 13.743C52.1818 13.522 52.3651 13.2776 52.5597 13.0101L51.7509 12.4219C51.5615 12.6824 51.3848 12.918 51.2206 13.129L52.01 13.743ZM52.5553 13.016C52.8068 12.6807 52.9908 12.3138 53.104 11.9174L52.1425 11.6426C52.0638 11.9182 51.9358 12.1753 51.7553 12.416L52.5553 13.016ZM53.1064 11.9088C53.2146 11.503 53.2673 11.0754 53.2673 10.628H52.2673C52.2673 10.9966 52.2239 11.337 52.1402 11.6512L53.1064 11.9088ZM53.2673 10.628C53.2673 9.78953 53.0665 9.03551 52.6474 8.38594C52.2295 7.73817 51.614 7.22434 50.8309 6.83278L50.3837 7.72721C51.0406 8.05566 51.5051 8.45983 51.8071 8.92806C52.1081 9.39449 52.2673 9.95447 52.2673 10.628H53.2673ZM50.8309 6.83278C49.3026 6.06863 47.4326 5.7 45.2433 5.7V6.7C47.3259 6.7 49.032 7.05136 50.3837 7.72721L50.8309 6.83278ZM45.2433 5.7H42.3633V6.7H45.2433V5.7ZM41.8633 6.2L41.8633 26H42.8633L42.8633 6.2H41.8633ZM42.3633 25.5H41.2833V26.5H42.3633V25.5ZM41.7833 26L41.7833 5.12H40.7833L40.7833 26H41.7833ZM41.2833 5.62H45.2433V4.62H41.2833V5.62ZM45.2433 5.62C48.0318 5.62 50.0495 6.10704 51.3692 7.00882L51.9334 6.18318C50.3731 5.11696 48.1187 4.62 45.2433 4.62V5.62ZM51.3724 7.01097C52.704 7.906 53.3473 9.0974 53.3473 10.628H54.3473C54.3473 8.75059 53.5266 7.25399 51.9302 6.18102L51.3724 7.01097ZM53.3473 10.628C53.3473 11.608 53.0211 12.4772 52.3524 13.2537L53.1102 13.9063C53.9295 12.9548 54.3473 11.856 54.3473 10.628H53.3473ZM52.357 13.2485C51.6609 14.0343 50.8318 14.6396 49.8652 15.0667L50.2694 15.9813C51.3668 15.4964 52.3136 14.8057 53.1056 13.9115L52.357 13.2485ZM68.6298 15.524L68.4277 15.0667L67.9606 15.2731L68.1768 15.7357L68.6298 15.524ZM73.5258 26V26.5H74.3114L73.9788 25.7883L73.5258 26ZM72.3378 26L71.8847 26.2114L72.0193 26.5H72.3378V26ZM67.2978 15.2L67.0742 14.7528L66.6389 14.9704L66.8447 15.4114L67.2978 15.2ZM67.9098 14.912L68.1213 15.3653L68.1334 15.3592L67.9098 14.912ZM68.7018 14.516L68.9254 14.9632L68.9532 14.9493L68.9791 14.932L68.7018 14.516ZM69.4218 14.048L69.6922 14.4686L69.4218 14.048ZM70.1778 13.436L70.5541 13.7653L70.5636 13.7544L70.5725 13.743L70.1778 13.436ZM70.7178 12.716L70.3177 12.416L70.3134 12.4219L70.7178 12.716ZM71.1858 11.78L71.6666 11.9174L71.6689 11.9088L71.1858 11.78ZM69.1698 7.28L69.3934 6.83278L69.1698 7.28ZM60.9258 6.2V5.7H60.4258V6.2H60.9258ZM60.9258 26V26.5H61.4258V26H60.9258ZM59.8458 26H59.3458V26.5H59.8458V26ZM59.8458 5.12V4.62H59.3458V5.12H59.8458ZM70.2138 6.596L69.9317 7.00883L69.9349 7.01097L70.2138 6.596ZM71.2938 13.58L71.6681 13.9115L71.6727 13.9063L71.2938 13.58ZM68.1768 15.7357L73.0728 26.2117L73.9788 25.7883L69.0828 15.3123L68.1768 15.7357ZM73.5258 25.5H72.3378V26.5H73.5258V25.5ZM72.7909 25.7886L67.7509 14.9886L66.8447 15.4114L71.8847 26.2114L72.7909 25.7886ZM67.5214 15.6472C67.5616 15.6271 67.7567 15.5352 68.1212 15.3651L67.6983 14.4589C67.3428 14.6248 67.13 14.7249 67.0742 14.7528L67.5214 15.6472ZM68.1334 15.3592C68.5174 15.1672 68.7814 15.0352 68.9254 14.9632L68.4782 14.0688C68.3342 14.1408 68.0702 14.2728 67.6862 14.4648L68.1334 15.3592ZM68.9791 14.932C69.1194 14.8385 69.3563 14.6845 69.6922 14.4686L69.1514 13.6274C68.8153 13.8435 68.5722 14.0015 68.4244 14.1L68.9791 14.932ZM69.6922 14.4686C70.048 14.2398 70.3429 14.0065 70.5541 13.7653L69.8015 13.1067C69.6766 13.2495 69.4676 13.4242 69.1514 13.6274L69.6922 14.4686ZM70.5725 13.743C70.7443 13.522 70.9276 13.2776 71.1221 13.0101L70.3134 12.4219C70.124 12.6824 69.9473 12.918 69.7831 13.129L70.5725 13.743ZM71.1178 13.016C71.3693 12.6807 71.5533 12.3138 71.6665 11.9174L70.705 11.6426C70.6263 11.9182 70.4983 12.1753 70.3178 12.416L71.1178 13.016ZM71.6689 11.9088C71.7771 11.503 71.8298 11.0754 71.8298 10.628H70.8298C70.8298 10.9966 70.7865 11.337 70.7027 11.6512L71.6689 11.9088ZM71.8298 10.628C71.8298 9.78953 71.629 9.03551 71.2099 8.38594C70.792 7.73817 70.1765 7.22434 69.3934 6.83278L68.9462 7.72721C69.6031 8.05566 70.0676 8.45983 70.3696 8.92806C70.6706 9.39449 70.8298 9.95447 70.8298 10.628H71.8298ZM69.3934 6.83278C67.8651 6.06863 65.9951 5.7 63.8058 5.7V6.7C65.8885 6.7 67.5945 7.05136 68.9462 7.72721L69.3934 6.83278ZM63.8058 5.7H60.9258V6.7H63.8058V5.7ZM60.4258 6.2L60.4258 26H61.4258L61.4258 6.2H60.4258ZM60.9258 25.5H59.8458V26.5H60.9258V25.5ZM60.3458 26L60.3458 5.12H59.3458L59.3458 26H60.3458ZM59.8458 5.62H63.8058V4.62H59.8458V5.62ZM63.8058 5.62C66.5943 5.62 68.612 6.10704 69.9317 7.00882L70.4959 6.18318C68.9356 5.11696 66.6813 4.62 63.8058 4.62V5.62ZM69.9349 7.01097C71.2665 7.906 71.9098 9.0974 71.9098 10.628H72.9098C72.9098 8.75059 72.0891 7.25399 70.4927 6.18102L69.9349 7.01097ZM71.9098 10.628C71.9098 11.608 71.5836 12.4772 70.9149 13.2537L71.6727 13.9063C72.492 12.9548 72.9098 11.856 72.9098 10.628H71.9098ZM70.9195 13.2485C70.2234 14.0343 69.3943 14.6396 68.4277 15.0667L68.8319 15.9813C69.9293 15.4964 70.8761 14.8057 71.6681 13.9115L70.9195 13.2485ZM79.6683 5.12V4.62H79.1683V5.12H79.6683ZM93.6003 5.12L94.0607 5.31495L94.355 4.62L93.6003 4.62V5.12ZM85.1403 25.1L84.6799 24.905L84.6403 24.9985V25.1H85.1403ZM85.1403 33.2V33.7H85.6403V33.2H85.1403ZM84.0603 33.2H83.5603V33.7H84.0603V33.2ZM84.0603 25.1H84.5603V24.9985L84.5207 24.905L84.0603 25.1ZM75.6003 5.12V4.62H74.8456L75.1399 5.31495L75.6003 5.12ZM76.7523 5.12L77.2125 4.92445L77.0831 4.62H76.7523V5.12ZM84.6003 23.588L84.1401 23.7836L84.6006 24.8671L85.0605 23.7833L84.6003 23.588ZM91.9803 6.2L92.4405 6.39535L92.7357 5.7H91.9803V6.2ZM79.6683 6.2H79.1683V6.7H79.6683V6.2ZM79.6683 5.62L93.6003 5.62V4.62L79.6683 4.62V5.62ZM93.1399 4.92504L84.6799 24.905L85.6007 25.295L94.0607 5.31495L93.1399 4.92504ZM84.6403 25.1L84.6403 33.2H85.6403L85.6403 25.1H84.6403ZM85.1403 32.7H84.0603V33.7H85.1403V32.7ZM84.5603 33.2L84.5603 25.1H83.5603L83.5603 33.2H84.5603ZM84.5207 24.905L76.0607 4.92504L75.1399 5.31495L83.5999 25.295L84.5207 24.905ZM75.6003 5.62L76.7523 5.62V4.62L75.6003 4.62V5.62ZM76.2921 5.31555L84.1401 23.7836L85.0605 23.3924L77.2125 4.92445L76.2921 5.31555ZM85.0605 23.7833L92.4405 6.39535L91.52 6.00465L84.14 23.3927L85.0605 23.7833ZM91.9803 5.7L79.6683 5.7V6.7L91.9803 6.7V5.7ZM80.1683 6.2V5.12H79.1683V6.2H80.1683ZM97.6387 26H97.1387V26.5H97.6387V26ZM97.6387 5.12V4.62H97.1387V5.12H97.6387ZM98.7188 5.12L99.1435 4.85624L98.9968 4.62H98.7188V5.12ZM110.455 24.02L110.03 24.2838L110.955 25.773V24.02H110.455ZM110.455 5.12V4.62H109.955V5.12H110.455ZM111.535 5.12H112.035V4.62H111.535V5.12ZM111.535 26V26.5H112.035V26H111.535ZM110.455 26L110.03 26.2634L110.176 26.5H110.455V26ZM98.7188 7.064L99.1437 6.8006L98.2188 5.30812V7.064H98.7188ZM98.7188 26V26.5H99.2188V26H98.7188ZM98.1387 26V5.12H97.1387V26L98.1387 26ZM97.6387 5.62H98.7188V4.62H97.6387V5.62ZM98.294 5.38376L110.03 24.2838L110.88 23.7562L99.1435 4.85624L98.294 5.38376ZM110.955 24.02V5.12H109.955V24.02H110.955ZM110.455 5.62L111.535 5.62V4.62L110.455 4.62V5.62ZM111.035 5.12V26H112.035V5.12L111.035 5.12ZM111.535 25.5H110.455V26.5H111.535V25.5ZM110.88 25.7366L99.1437 6.8006L98.2938 7.3274L110.03 26.2634L110.88 25.7366ZM98.2188 7.064V26H99.2188V7.064H98.2188ZM98.7188 25.5L97.6387 25.5V26.5H98.7188V25.5ZM118.381 5.12V4.62H117.881V5.12H118.381ZM119.461 5.12H119.961V4.62H119.461V5.12ZM119.461 26V26.5H119.961V26H119.461ZM118.381 26H117.881V26.5H118.381V26ZM118.381 5.62H119.461V4.62H118.381V5.62ZM118.961 5.12V26H119.961V5.12H118.961ZM119.461 25.5H118.381V26.5H119.461V25.5ZM118.881 26V5.12H117.881V26H118.881ZM129.675 24.92V24.42H129.175V24.92H129.675ZM143.571 24.92V25.42H144.071V24.92H143.571ZM143.571 6.632H144.071V5.42489L143.218 6.27845L143.571 6.632ZM135.471 14.732L135.118 15.0856L135.471 15.4391L135.825 15.0856L135.471 14.732ZM127.371 6.632L127.725 6.27845L126.871 5.42489V6.632H127.371ZM127.371 26L127.354 26.4997L127.871 26.5169V26H127.371ZM126.291 25.964H125.791V26.4476L126.274 26.4637L126.291 25.964ZM126.291 5.12V4.62H125.791V5.12H126.291ZM127.371 5.12L127.725 4.76645L127.578 4.62H127.371V5.12ZM135.471 13.22L135.118 13.5736L135.471 13.9271L135.825 13.5736L135.471 13.22ZM143.571 5.12V4.62H143.364L143.218 4.76645L143.571 5.12ZM144.651 5.12H145.151V4.62H144.651V5.12ZM144.651 26L144.65 26.5L145.151 26.5012V26H144.651ZM129.675 25.964H129.175V26.4628L129.674 26.464L129.675 25.964ZM129.675 25.42L143.571 25.42V24.42L129.675 24.42V25.42ZM144.071 24.92V6.632H143.071V24.92H144.071ZM143.218 6.27845L135.118 14.3784L135.825 15.0856L143.925 6.98555L143.218 6.27845ZM135.825 14.3784L127.725 6.27845L127.018 6.98555L135.118 15.0856L135.825 14.3784ZM126.871 6.632V26H127.871V6.632H126.871ZM127.388 25.5003L126.308 25.4643L126.274 26.4637L127.354 26.4997L127.388 25.5003ZM126.791 25.964V5.12H125.791V25.964H126.791ZM126.291 5.62H127.371V4.62H126.291V5.62ZM127.018 5.47355L135.118 13.5736L135.825 12.8664L127.725 4.76645L127.018 5.47355ZM135.825 13.5736L143.925 5.47355L143.218 4.76645L135.118 12.8664L135.825 13.5736ZM143.571 5.62H144.651V4.62H143.571V5.62ZM144.151 5.12V26H145.151V5.12H144.151ZM144.652 25.5L129.676 25.464L129.674 26.464L144.65 26.5L144.652 25.5ZM130.175 25.964V24.92H129.175V25.964H130.175Z" fill="url(#paint1_linear)"/>
<defs>
<linearGradient id="paint0_linear" x1="149" y1="14" x2="-1.35167e-06" y2="14" gradientUnits="userSpaceOnUse">
<stop stop-color="#4074BA"/>
<stop offset="1" stop-color="#88CBDB"/>
</linearGradient>
<linearGradient id="paint1_linear" x1="5.55068e-07" y1="14" x2="149" y2="14" gradientUnits="userSpaceOnUse">
<stop stop-color="#88CBDB"/>
<stop offset="1" stop-color="#4074BA"/>
</linearGradient>
</defs>
</svg>
